<?xml version="1.0" encoding="utf-8"?>
<!-- Generator: Adobe Illustrator 26.2.1, SVG Export Plug-In . SVG Version: 6.00 Build 0)  -->
<svg version="1.1" id="Layer_1" xmlns="http://www.w3.org/2000/svg" xmlns:xlink="http://www.w3.org/1999/xlink" x="0px" y="0px"
	 width="200px" height="30.11px" viewBox="0 0 200 30.11" style="enable-background:new 0 0 200 30.11;" xml:space="preserve">
<style type="text/css">
	.st0{fill:#006837;}
	.st1{fill:#39B54A;}
	.st2{fill:#8CC63F;}
	.st3{fill:#D9E021;}
	.st4{fill:#009245;}
</style>
<g>
	<path class="st0" d="M22.39,0.33L11.82,14.8l12.24,15.4h-6.83L5.57,15.12h-0.1V30.2H0V0.3h5.46v14.82h0.1L15.92,0.33H22.39z"/>
	<path class="st0" d="M31.01,6.74h-5.47V0.33h5.47V6.74z M31.01,30.2h-5.47V10.1h5.47V30.2z"/>
	<polygon class="st1" points="88.87,24.73 88.87,0.3 83.41,0.3 83.41,24.73 83.41,30.2 88.87,30.2 98.75,30.2 98.75,24.73 	"/>
	<path class="st1" d="M98.75,20.15h-5.47V0.3h5.47V20.15z"/>
	<path class="st2" d="M126.08,0.33L115.52,14.8l12.24,15.4h-6.83l-11.67-15.08h-0.1V30.2h-5.46V0.33h5.46v14.79h0.1l10.35-14.79
		H126.08z"/>
	<g>
		<path class="st3" d="M124.6,14.91c0-1.68,0.3-3.39,0.92-5.12c0.61-1.73,1.52-3.29,2.74-4.7c1.22-1.4,2.75-2.55,4.6-3.44
			c1.85-0.89,4.02-1.33,6.53-1.33c2.51,0,4.68,0.44,6.53,1.33c1.85,0.89,3.38,2.04,4.6,3.44s2.13,2.97,2.75,4.7
			c0.61,1.73,0.91,3.44,0.91,5.12c0,1.68-0.3,3.39-0.91,5.12c-0.61,1.73-1.53,3.3-2.75,4.7c-1.22,1.4-2.75,2.55-4.6,3.44
			c-1.85,0.89-4.02,1.34-6.53,1.34c-2.51,0-4.68-0.44-6.53-1.34c-1.85-0.89-3.38-2.03-4.6-3.44c-1.22-1.4-2.13-2.97-2.74-4.7
			C124.9,18.3,124.6,16.59,124.6,14.91z M132.8,14.91c0,0.99,0.17,1.91,0.52,2.77c0.35,0.86,0.82,1.59,1.43,2.2
			c0.61,0.61,1.31,1.09,2.1,1.43c0.79,0.35,1.63,0.52,2.52,0.52c0.89,0,1.73-0.17,2.52-0.52c0.79-0.35,1.49-0.82,2.1-1.43
			c0.61-0.61,1.09-1.34,1.43-2.2c0.35-0.86,0.52-1.78,0.52-2.77c0-0.99-0.17-1.91-0.52-2.77c-0.35-0.86-0.82-1.59-1.43-2.2
			c-0.61-0.61-1.31-1.09-2.1-1.43c-0.79-0.35-1.63-0.52-2.52-0.52c-0.89,0-1.73,0.17-2.52,0.52c-0.79,0.35-1.49,0.82-2.1,1.43
			c-0.61,0.61-1.09,1.34-1.43,2.2C132.98,13,132.8,13.92,132.8,14.91z"/>
		<path class="st3" d="M172.79,0.33v7.66h-6.09v21.51h-8.72V7.99h-6.17V0.33H172.79z"/>
		<path class="st3" d="M170.43,14.91c0-1.68,0.3-3.39,0.92-5.12c0.61-1.73,1.52-3.29,2.74-4.7s2.75-2.55,4.6-3.44
			c1.85-0.89,4.02-1.33,6.53-1.33c2.51,0,4.68,0.44,6.53,1.33c1.85,0.89,3.38,2.04,4.6,3.44s2.13,2.97,2.75,4.7
			c0.61,1.73,0.91,3.44,0.91,5.12c0,1.68-0.3,3.39-0.91,5.12c-0.61,1.73-1.53,3.3-2.75,4.7c-1.22,1.4-2.75,2.55-4.6,3.44
			c-1.85,0.89-4.02,1.34-6.53,1.34c-2.51,0-4.68-0.44-6.53-1.34c-1.85-0.89-3.38-2.03-4.6-3.44c-1.22-1.4-2.13-2.97-2.74-4.7
			C170.74,18.3,170.43,16.59,170.43,14.91z M178.64,14.91c0,0.99,0.17,1.91,0.52,2.77c0.35,0.86,0.82,1.59,1.43,2.2
			c0.61,0.61,1.31,1.09,2.1,1.43c0.79,0.35,1.63,0.52,2.52,0.52c0.89,0,1.73-0.17,2.52-0.52c0.79-0.35,1.49-0.82,2.1-1.43
			c0.61-0.61,1.09-1.34,1.43-2.2c0.35-0.86,0.52-1.78,0.52-2.77c0-0.99-0.17-1.91-0.52-2.77c-0.35-0.86-0.82-1.59-1.43-2.2
			c-0.61-0.61-1.31-1.09-2.1-1.43c-0.79-0.35-1.63-0.52-2.52-0.52c-0.89,0-1.73,0.17-2.52,0.52c-0.79,0.35-1.49,0.82-2.1,1.43
			c-0.61,0.61-1.09,1.34-1.43,2.2C178.82,13,178.64,13.92,178.64,14.91z"/>
	</g>
	<path class="st4" d="M73.05,0v3.73C70.39,1.41,66.93,0,63.13,0c-8.34,0-15.1,6.76-15.1,15.1c0,8.34,6.76,15.1,15.1,15.1
		c3.8,0,7.26-1.41,9.91-3.73v3.73h5.19V0H73.05z M63.13,25.01c-5.47,0-9.91-4.44-9.91-9.91s4.44-9.91,9.91-9.91s9.91,4.44,9.91,9.91
		S68.61,25.01,63.13,25.01z"/>
	<path class="st4" d="M40.61,3.73V0h-5.19v30.2h5.19v-3.73V15.1c0-4.61,3.16-8.48,7.43-9.58v-5.3C45.22,0.69,42.67,1.93,40.61,3.73z
		"/>
	<g>
		<path class="st4" d="M146.36,10.82h1.69v7.83h-1.69v-1.13c-0.64,0.89-1.55,1.33-2.74,1.33c-1.08,0-1.99-0.39-2.76-1.19
			c-0.77-0.8-1.14-1.79-1.14-2.93c0-1.16,0.38-2.13,1.14-2.93c0.77-0.8,1.68-1.19,2.76-1.19c1.19,0,2.1,0.44,2.74,1.32V10.82z
			 M143.88,17.24c0.71,0,1.3-0.23,1.77-0.7c0.47-0.49,0.7-1.08,0.7-1.8c0-0.72-0.23-1.32-0.7-1.79c-0.47-0.49-1.07-0.72-1.77-0.72
			c-0.7,0-1.3,0.24-1.77,0.72c-0.47,0.47-0.71,1.07-0.71,1.79c0,0.72,0.24,1.32,0.71,1.8C142.58,17,143.18,17.24,143.88,17.24z"/>
		<path class="st4" d="M156.29,13.84v4.81h-1.69v-4.64c0-1.18-0.67-1.82-1.75-1.82c-1.19,0-1.99,0.74-1.99,2.26v4.2h-1.69v-7.83
			h1.69v1c0.52-0.8,1.32-1.21,2.43-1.21C155.09,10.61,156.29,11.83,156.29,13.84z"/>
		<path class="st4" d="M164.18,18.65h-2.02l-3.21-3.62v3.62h-1.69V7.68h1.69v6.59l3.04-3.46h2.07l-3.45,3.84L164.18,18.65z"/>
		<path class="st4" d="M170.04,10.82h1.69v7.83h-1.69v-1.13c-0.64,0.89-1.55,1.33-2.74,1.33c-1.08,0-1.99-0.39-2.76-1.19
			c-0.77-0.8-1.14-1.79-1.14-2.93c0-1.16,0.38-2.13,1.14-2.93c0.77-0.8,1.68-1.19,2.76-1.19c1.19,0,2.1,0.44,2.74,1.32V10.82z
			 M167.56,17.24c0.71,0,1.3-0.23,1.77-0.7c0.47-0.49,0.7-1.08,0.7-1.8c0-0.72-0.23-1.32-0.7-1.79c-0.47-0.49-1.07-0.72-1.77-0.72
			c-0.7,0-1.3,0.24-1.77,0.72c-0.47,0.47-0.71,1.07-0.71,1.79c0,0.72,0.24,1.32,0.71,1.8C166.26,17,166.86,17.24,167.56,17.24z"/>
		<path class="st4" d="M174.54,12.13c0.42-0.97,1.24-1.46,2.41-1.46v1.83c-0.64-0.05-1.21,0.11-1.69,0.47
			c-0.49,0.35-0.72,0.92-0.72,1.72v3.95h-1.69v-7.83h1.69V12.13z"/>
		<path class="st4" d="M183.19,10.82h1.69v7.83h-1.69v-1.13c-0.64,0.89-1.55,1.33-2.74,1.33c-1.08,0-1.99-0.39-2.76-1.19
			c-0.77-0.8-1.14-1.79-1.14-2.93c0-1.16,0.38-2.13,1.14-2.93c0.77-0.8,1.68-1.19,2.76-1.19c1.19,0,2.1,0.44,2.74,1.32V10.82z
			 M180.71,17.24c0.71,0,1.3-0.23,1.77-0.7c0.47-0.49,0.7-1.08,0.7-1.8c0-0.72-0.23-1.32-0.7-1.79c-0.47-0.49-1.07-0.72-1.77-0.72
			c-0.7,0-1.3,0.24-1.77,0.72c-0.47,0.47-0.71,1.07-0.71,1.79c0,0.72,0.24,1.32,0.71,1.8C179.41,17,180.01,17.24,180.71,17.24z"/>
	</g>
</g>
</svg>
