<?xml version="1.0" encoding="utf-8"?>
<!-- Generator: Adobe Illustrator 26.2.1, SVG Export Plug-In . SVG Version: 6.00 Build 0)  -->
<svg version="1.1" id="Layer_1" xmlns="http://www.w3.org/2000/svg" xmlns:xlink="http://www.w3.org/1999/xlink" x="0px" y="0px"
	 width="465px" height="70px" viewBox="0 0 465 70" style="enable-background:new 0 0 465 70;" xml:space="preserve">
<style type="text/css">
	.st0{fill:#006837;}
	.st1{fill:#39B54A;}
	.st2{fill:#8CC63F;}
	.st3{fill:#D9E021;}
	.st4{fill:#009245;}
</style>
<g>
	<path class="st0" d="M52.59,0.75L28.11,34.31L56.49,70H40.65L13.61,35.04h-0.24V70H0.7V0.69h12.67v34.35h0.24l24-34.28H52.59z"/>
	<path class="st0" d="M72.58,15.61H59.91V0.75h12.67V15.61z M72.58,70H59.91V23.41h12.67V70z"/>
	<polygon class="st1" points="206.71,57.33 206.71,0.69 194.04,0.69 194.04,57.33 194.04,70 206.71,70 229.61,70 229.61,57.33 	"/>
	<path class="st1" d="M229.61,46.7h-12.67V0.69h12.67V46.7z"/>
	<path class="st2" d="M292.95,0.75l-24.48,33.56L296.85,70h-15.84l-27.04-34.96h-0.24V70h-12.67V0.75h12.67v34.28h0.24l24-34.28
		H292.95z"/>
	<g>
		<path class="st3" d="M289.51,34.56c0-3.9,0.71-7.85,2.12-11.86c1.41-4.01,3.53-7.64,6.36-10.89c2.83-3.25,6.38-5.9,10.66-7.97
			c4.28-2.06,9.32-3.09,15.13-3.09c5.81,0,10.85,1.03,15.13,3.09c4.28,2.07,7.83,4.72,10.66,7.97c2.83,3.25,4.95,6.88,6.36,10.89
			c1.41,4.01,2.12,7.96,2.12,11.86c0,3.9-0.71,7.85-2.12,11.86c-1.42,4.01-3.54,7.64-6.36,10.89c-2.83,3.25-6.38,5.9-10.66,7.96
			c-4.28,2.07-9.32,3.09-15.13,3.09c-5.81,0-10.85-1.03-15.13-3.09c-4.28-2.06-7.83-4.72-10.66-7.96
			c-2.83-3.25-4.95-6.88-6.36-10.89C290.22,42.41,289.51,38.46,289.51,34.56z M308.54,34.56c0,2.29,0.4,4.43,1.21,6.42
			c0.8,1.99,1.91,3.69,3.32,5.1c1.41,1.41,3.04,2.52,4.87,3.32c1.83,0.8,3.78,1.2,5.84,1.2c2.07,0,4.01-0.4,5.85-1.2
			c1.83-0.8,3.45-1.91,4.87-3.32c1.41-1.42,2.52-3.11,3.32-5.1s1.2-4.12,1.2-6.42c0-2.29-0.4-4.43-1.2-6.42s-1.91-3.69-3.32-5.1
			c-1.42-1.41-3.04-2.52-4.87-3.32c-1.83-0.8-3.78-1.2-5.85-1.2c-2.06,0-4.01,0.4-5.84,1.2c-1.83,0.8-3.46,1.91-4.87,3.32
			c-1.42,1.42-2.52,3.11-3.32,5.1C308.94,30.13,308.54,32.27,308.54,34.56z"/>
		<path class="st3" d="M401.23,0.75v17.76h-14.12v49.85h-20.22V18.52h-14.31V0.75H401.23z"/>
		<path class="st3" d="M395.77,34.56c0-3.9,0.71-7.85,2.12-11.86c1.41-4.01,3.53-7.64,6.36-10.89s6.38-5.9,10.66-7.97
			c4.28-2.06,9.32-3.09,15.13-3.09s10.85,1.03,15.13,3.09c4.28,2.07,7.83,4.72,10.66,7.97s4.95,6.88,6.36,10.89
			c1.41,4.01,2.12,7.96,2.12,11.86c0,3.9-0.71,7.85-2.12,11.86c-1.42,4.01-3.54,7.64-6.36,10.89c-2.83,3.25-6.38,5.9-10.66,7.96
			c-4.28,2.07-9.32,3.09-15.13,3.09s-10.85-1.03-15.13-3.09c-4.28-2.06-7.83-4.72-10.66-7.96c-2.83-3.25-4.95-6.88-6.36-10.89
			C396.47,42.41,395.77,38.46,395.77,34.56z M414.79,34.56c0,2.29,0.4,4.43,1.21,6.42c0.8,1.99,1.91,3.69,3.32,5.1
			c1.41,1.41,3.04,2.52,4.87,3.32c1.83,0.8,3.78,1.2,5.84,1.2c2.07,0,4.01-0.4,5.85-1.2c1.83-0.8,3.45-1.91,4.87-3.32
			c1.41-1.42,2.52-3.11,3.32-5.1s1.2-4.12,1.2-6.42c0-2.29-0.4-4.43-1.2-6.42s-1.91-3.69-3.32-5.1c-1.42-1.41-3.04-2.52-4.87-3.32
			c-1.83-0.8-3.78-1.2-5.85-1.2c-2.06,0-4.01,0.4-5.84,1.2c-1.83,0.8-3.46,1.91-4.87,3.32c-1.42,1.42-2.52,3.11-3.32,5.1
			C415.19,30.13,414.79,32.27,414.79,34.56z"/>
	</g>
	<path class="st4" d="M170.02,0v8.64C163.87,3.27,155.85,0,147.04,0c-19.33,0-35,15.67-35,35c0,19.33,15.67,35,35,35
		c8.8,0,16.83-3.27,22.98-8.64V70h12.02V0H170.02z M147.04,57.98c-12.69,0-22.98-10.29-22.98-22.98s10.29-22.98,22.98-22.98
		c12.69,0,22.98,10.29,22.98,22.98S159.73,57.98,147.04,57.98z"/>
	<path class="st4" d="M94.83,8.64V0H82.81v70h12.02v-8.64V35c0-10.69,7.32-19.66,17.21-22.22V0.5C105.52,1.59,99.61,4.47,94.83,8.64
		z"/>
	<g>
		<path class="st4" d="M339.95,25.07h3.92v18.16h-3.92v-2.61c-1.49,2.07-3.59,3.09-6.35,3.09c-2.51,0-4.61-0.91-6.39-2.76
			c-1.78-1.85-2.65-4.14-2.65-6.79c0-2.69,0.87-4.94,2.65-6.79c1.78-1.85,3.88-2.76,6.39-2.76c2.76,0,4.87,1.02,6.35,3.05V25.07z
			 M334.22,39.96c1.63,0,3.01-0.54,4.1-1.63c1.09-1.12,1.63-2.51,1.63-4.18c0-1.67-0.54-3.05-1.63-4.14
			c-1.09-1.12-2.47-1.67-4.1-1.67c-1.63,0-3.01,0.55-4.1,1.67c-1.09,1.09-1.63,2.47-1.63,4.14c0,1.67,0.55,3.05,1.63,4.18
			C331.2,39.41,332.58,39.96,334.22,39.96z"/>
		<path class="st4" d="M362.99,32.08v11.15h-3.92V32.48c0-2.72-1.56-4.21-4.07-4.21c-2.76,0-4.61,1.71-4.61,5.23v9.73h-3.92V25.07
			h3.92v2.32c1.2-1.85,3.05-2.8,5.63-2.8C360.19,24.6,362.99,27.43,362.99,32.08z"/>
		<path class="st4" d="M381.26,43.23h-4.68l-7.44-8.39v8.39h-3.92V17.81h3.92V33.1l7.04-8.02h4.79l-7.99,8.9L381.26,43.23z"/>
		<path class="st4" d="M394.85,25.07h3.92v18.16h-3.92v-2.61c-1.49,2.07-3.59,3.09-6.35,3.09c-2.51,0-4.61-0.91-6.39-2.76
			c-1.78-1.85-2.65-4.14-2.65-6.79c0-2.69,0.87-4.94,2.65-6.79c1.78-1.85,3.88-2.76,6.39-2.76c2.76,0,4.87,1.02,6.35,3.05V25.07z
			 M389.11,39.96c1.63,0,3.01-0.54,4.1-1.63c1.09-1.12,1.63-2.51,1.63-4.18c0-1.67-0.54-3.05-1.63-4.14
			c-1.09-1.12-2.47-1.67-4.1-1.67c-1.63,0-3.01,0.55-4.1,1.67c-1.09,1.09-1.63,2.47-1.63,4.14c0,1.67,0.55,3.05,1.63,4.18
			C386.1,39.41,387.48,39.96,389.11,39.96z"/>
		<path class="st4" d="M405.28,28.12c0.98-2.25,2.87-3.38,5.59-3.38v4.25c-1.49-0.11-2.8,0.25-3.92,1.09
			c-1.12,0.8-1.67,2.14-1.67,3.99v9.15h-3.92V25.07h3.92V28.12z"/>
		<path class="st4" d="M425.33,25.07h3.92v18.16h-3.92v-2.61c-1.49,2.07-3.6,3.09-6.35,3.09c-2.51,0-4.61-0.91-6.39-2.76
			c-1.78-1.85-2.65-4.14-2.65-6.79c0-2.69,0.87-4.94,2.65-6.79c1.78-1.85,3.88-2.76,6.39-2.76c2.76,0,4.87,1.02,6.35,3.05V25.07z
			 M419.59,39.96c1.64,0,3.01-0.54,4.1-1.63c1.09-1.12,1.63-2.51,1.63-4.18c0-1.67-0.54-3.05-1.63-4.14
			c-1.09-1.12-2.47-1.67-4.1-1.67c-1.63,0-3.01,0.55-4.1,1.67c-1.09,1.09-1.64,2.47-1.64,4.14c0,1.67,0.55,3.05,1.64,4.18
			C416.58,39.41,417.96,39.96,419.59,39.96z"/>
	</g>
</g>
</svg>
